<svg width="512" height="512" viewBox="0 0 512 512" fill="none" xmlns="http://www.w3.org/2000/svg">
  <defs>
    <linearGradient id="goldGradient" x1="0%" y1="0%" x2="100%" y2="100%">
      <stop offset="0%" style="stop-color:#F3EACB;stop-opacity:1" />
      <stop offset="50%" style="stop-color:#D4AF37;stop-opacity:1" />
      <stop offset="100%" style="stop-color:#8D6E15;stop-opacity:1" />
    </linearGradient>
    <filter id="glow" x="-20%" y="-20%" width="140%" height="140%">
      <feGaussianBlur stdDeviation="15" result="blur" />
      <feComposite in="SourceGraphic" in2="blur" operator="over" />
    </filter>
  </defs>
  <circle cx="256" cy="256" r="240" fill="#050505" stroke="url(#goldGradient)" stroke-width="8"/>
  <circle cx="256" cy="256" r="200" fill="transparent" stroke="rgba(212, 175, 55, 0.1)" stroke-width="2" stroke-dasharray="10 10"/>
  <path d="M310 160C260 160 210 200 210 256C210 312 260 352 310 352C280 352 240 330 240 256C240 182 280 160 310 160Z" fill="url(#goldGradient)" filter="url(#glow)"/>
  <path d="M256 120L266 145L291 145L271 161L279 186L256 170L233 186L241 161L221 145L246 145L256 120Z" fill="url(#goldGradient)" filter="url(#glow)"/>
  <path d="M256 60V80M256 432V452M60 256H80M432 256H452" stroke="url(#goldGradient)" stroke-width="4" stroke-linecap="round"/>
</svg>
